<svg width="17" height="17" viewBox="0 0 17 17" fill="none" xmlns="http://www.w3.org/2000/svg">
<g clip-path="url(#clip0_1_1413)">
<path d="M13.5 6.19125V11.7782C13.5 12.0878 13.3898 12.3529 13.1693 12.5733C12.9488 12.7938 12.6838 12.9041 12.3742 12.9041H2.01646C1.70686 12.9041 1.44182 12.7938 1.22134 12.5733C1.00086 12.3529 0.890625 12.0878 0.890625 11.7782V6.19125C1.09703 6.42111 1.33392 6.62517 1.60131 6.80342C3.29945 7.95741 4.46516 8.7666 5.09844 9.23101C5.36583 9.42803 5.58279 9.58166 5.74932 9.6919C5.91585 9.80214 6.13749 9.91472 6.41426 10.0296C6.69103 10.1446 6.94904 10.202 7.18828 10.202H7.19531H7.20235C7.44159 10.202 7.69959 10.1446 7.97636 10.0296C8.25313 9.91472 8.47478 9.80214 8.64131 9.6919C8.80784 9.58166 9.0248 9.42803 9.29218 9.23101C10.0897 8.65402 11.2577 7.84482 12.7964 6.80342C13.0637 6.62047 13.2983 6.41642 13.5 6.19125ZM13.5 4.12252C13.5 4.49311 13.3851 4.84728 13.1552 5.18503C12.9254 5.52278 12.6392 5.81128 12.2968 6.05052C10.533 7.27487 9.43526 8.03715 9.00369 8.33738C8.95678 8.37021 8.85709 8.44175 8.70464 8.55199C8.55218 8.66223 8.42552 8.75136 8.32467 8.81938C8.22381 8.88739 8.10185 8.96362 7.95877 9.04806C7.8157 9.1325 7.68083 9.19583 7.55417 9.23805C7.42752 9.28026 7.31024 9.30137 7.20235 9.30137H7.19531H7.18828C7.08038 9.30137 6.96311 9.28026 6.83645 9.23805C6.70979 9.19583 6.57493 9.1325 6.43185 9.04806C6.28878 8.96362 6.16681 8.88739 6.06596 8.81938C5.9651 8.75136 5.83844 8.66223 5.68599 8.55199C5.53353 8.44175 5.43385 8.37021 5.38694 8.33738C4.96006 8.03715 4.34554 7.6091 3.54338 7.05322C2.74122 6.49734 2.26039 6.1631 2.1009 6.05052C1.81006 5.8535 1.53564 5.58259 1.27763 5.23781C1.01963 4.89302 0.890625 4.57286 0.890625 4.27733C0.890625 3.91143 0.987963 3.60651 1.18264 3.36258C1.37731 3.11865 1.65526 2.99669 2.01646 2.99669H12.3742C12.6791 2.99669 12.9429 3.10693 13.1658 3.3274C13.3886 3.54788 13.5 3.81292 13.5 4.12252Z" fill="#0464FA"/>
</g>
<defs>
<clipPath id="clip0_1_1413">
<rect width="16" height="16" fill="white" transform="matrix(1 0 0 -1 0.5 16.5)"/>
</clipPath>
</defs>
</svg>
