<svg width="7" height="11" viewBox="0 0 7 11" fill="none" xmlns="http://www.w3.org/2000/svg">
<path d="M1.22842 10.4448C1.02792 10.4448 0.856529 10.3783 0.714241 10.2454C0.571953 10.1124 0.500809 9.95003 0.500809 9.7583C0.500809 9.56657 0.575187 9.39958 0.723942 9.25732L4.64333 5.51855L0.723942 1.77979C0.575187 1.63753 0.500809 1.47054 0.500809 1.27881C0.500809 1.08708 0.571953 0.924724 0.714241 0.791748C0.856529 0.658772 1.02792 0.592285 1.22842 0.592285C1.41598 0.592285 1.58414 0.657227 1.73289 0.787109L6.15676 4.99902C6.31198 5.13509 6.3896 5.30827 6.3896 5.51855C6.3896 5.71647 6.31198 5.88965 6.15676 6.03809L1.73289 10.25C1.59707 10.3799 1.42892 10.4448 1.22842 10.4448Z" fill="#0066CC"/>
</svg>
