<svg width="21" height="21" viewBox="0 0 21 21" fill="none" xmlns="http://www.w3.org/2000/svg">
<path id="Vector" d="M6.62095 0.225947C3.30522 1.02872 0.760601 3.74286 0.124446 7.18331C-0.338213 9.62986 0.509994 12.3249 2.32207 14.2171C5.07875 17.1033 9.03063 17.7723 12.597 15.9565L13.5608 15.4786L16.3753 18.231C19.3633 21.1745 19.7874 21.4039 20.5971 20.6011C21.4067 19.7983 21.1754 19.3778 18.226 16.4152L15.4886 13.6246L16.2597 12.0955C17.0308 10.6047 17.0308 10.5664 17.0308 8.46393C17.0308 6.49522 16.9922 6.28497 16.4139 5.0617C14.6211 1.33454 10.4957 -0.710621 6.62095 0.225947ZM11.3825 2.48136C12.7705 3.11211 13.9271 4.27804 14.6404 5.74979C15.3536 7.27888 15.4115 9.30493 14.7946 10.9678C14.2355 12.4587 12.5584 14.1025 11.0355 14.6567C9.68606 15.1728 7.6041 15.211 6.35106 14.7905C3.55583 13.7966 1.72447 10.9869 1.93653 8.0052C2.05219 6.43788 2.59196 5.21461 3.63294 4.0869C5.17514 2.44313 6.60167 1.83149 8.83785 1.92706C9.89811 1.9844 10.5921 2.1182 11.3825 2.48136Z" fill="#0464FA"/>
</svg>
