<svg width="17" height="17" viewBox="0 0 17 17" fill="none" xmlns="http://www.w3.org/2000/svg">
<g clip-path="url(#clip0_1_1408)">
<path d="M15.2154 1.21875C15.5487 1.28125 15.8195 1.44271 16.0279 1.70312C16.2362 1.96354 16.3404 2.27083 16.3404 2.625C16.3404 4.5 15.9706 6.29688 15.231 8.01562C14.4914 9.73438 13.5018 11.2135 12.2622 12.4531C11.0226 13.6927 9.54869 14.6771 7.84035 15.4062C6.13202 16.1354 4.32994 16.5 2.4341 16.5C2.10077 16.5 1.80389 16.3958 1.54348 16.1875C1.28306 15.9792 1.1216 15.7083 1.0591 15.375L0.371603 12.4375C0.28827 12.1042 0.324728 11.7812 0.480978 11.4688C0.637228 11.1562 0.88202 10.9375 1.21535 10.8125L4.3716 9.4375C4.66327 9.3125 4.96535 9.29167 5.27785 9.375C5.59035 9.45833 5.85077 9.625 6.0591 9.875L7.0591 11.125C8.7466 10.2083 10.0487 8.90625 10.9654 7.21875L9.71535 6.21875C9.46535 6.01042 9.30389 5.75 9.23098 5.4375C9.15806 5.125 9.17369 4.82292 9.27785 4.53125L10.6529 1.375C10.7987 1.04167 11.0226 0.796875 11.3247 0.640625C11.6268 0.484375 11.9445 0.447916 12.2779 0.53125L15.2154 1.21875ZM2.4966 15C4.72577 15 6.78827 14.4479 8.6841 13.3438C10.5799 12.2396 12.0799 10.7396 13.1841 8.84375C14.2883 6.94792 14.8404 4.88542 14.8404 2.65625L11.9966 2L10.6841 5.09375L12.8091 6.8125C12.1008 8.35417 11.2831 9.58333 10.356 10.5C9.42889 11.4167 8.19452 12.2396 6.65285 12.9688L4.9341 10.8438L1.84035 12.1562L2.4966 15Z" fill="#0464FA"/>
</g>
<defs>
<clipPath id="clip0_1_1408">
<rect width="16" height="16" fill="white" transform="matrix(1 0 0 -1 0.328125 16.5)"/>
</clipPath>
</defs>
</svg>
