<?xml version="1.0" encoding="UTF-8" standalone="no"?>
<!-- Created with Inkscape (http://www.inkscape.org/) -->

<svg
   xmlns:dc="http://purl.org/dc/elements/1.1/"
   xmlns:cc="http://creativecommons.org/ns#"
   xmlns:rdf="http://www.w3.org/1999/02/22-rdf-syntax-ns#"
   xmlns:svg="http://www.w3.org/2000/svg"
   xmlns="http://www.w3.org/2000/svg"
   xmlns:xlink="http://www.w3.org/1999/xlink"
   xmlns:sodipodi="http://sodipodi.sourceforge.net/DTD/sodipodi-0.dtd"
   xmlns:inkscape="http://www.inkscape.org/namespaces/inkscape"
   width="345.66907"
   height="424.59375"
   id="svg5980"
   version="1.1"
   inkscape:version="0.48.4 r9939"
   sodipodi:docname="Nieuw document 13">
  <defs
     id="defs5982">
    <linearGradient
       id="linearGradient4070-6-1">
      <stop
         style="stop-color:#a3a3a3;stop-opacity:1;"
         offset="0"
         id="stop4072-2-3" />
      <stop
         style="stop-color:#b0b0b0;stop-opacity:1;"
         offset="0.14285725"
         id="stop4074-3-2" />
      <stop
         id="stop4076-8-1"
         offset="0.32142863"
         style="stop-color:#d1d1d1;stop-opacity:1;" />
      <stop
         style="stop-color:#bdbdbd;stop-opacity:1;"
         offset="0.5"
         id="stop4078-2-6" />
      <stop
         id="stop4080-6-3"
         offset="0.75"
         style="stop-color:#e5e5e5;stop-opacity:1;" />
      <stop
         style="stop-color:#cccccc;stop-opacity:1;"
         offset="0.875"
         id="stop4082-2-8" />
      <stop
         id="stop4084-7-3"
         offset="1"
         style="stop-color:#cccccc;stop-opacity:1;" />
    </linearGradient>
    <linearGradient
       gradientTransform="matrix(-1,0,0,1,-904.37999,-1271.7623)"
       gradientUnits="userSpaceOnUse"
       y2="1521.8723"
       x2="-1157.1014"
       y1="1521.8723"
       x1="-1418.8549"
       id="linearGradient15804"
       xlink:href="#linearGradient4070-6-1"
       inkscape:collect="always" />
    <linearGradient
       id="linearGradient15717"
       inkscape:collect="always">
      <stop
         id="stop15719"
         offset="0"
         style="stop-color:#ffffff;stop-opacity:1;" />
      <stop
         id="stop15721"
         offset="1"
         style="stop-color:#ffffff;stop-opacity:0;" />
    </linearGradient>
    <linearGradient
       gradientTransform="matrix(-1,0,0,1,-1056.3359,-1271.7623)"
       gradientUnits="userSpaceOnUse"
       y2="1605.3918"
       x2="-1343.4023"
       y1="1605.3918"
       x1="-1384.5096"
       id="linearGradient15723"
       xlink:href="#linearGradient15717"
       inkscape:collect="always" />
    <filter
       id="filter15949"
       inkscape:collect="always"
       color-interpolation-filters="sRGB">
      <feGaussianBlur
         id="feGaussianBlur15951"
         stdDeviation="1.4339444"
         inkscape:collect="always" />
    </filter>
    <linearGradient
       id="linearGradient23124">
      <stop
         style="stop-color:#cc992d;stop-opacity:1;"
         offset="0"
         id="stop23126" />
      <stop
         style="stop-color:#e1a832;stop-opacity:1;"
         offset="0.14285725"
         id="stop23128" />
      <stop
         id="stop23130"
         offset="0.32142863"
         style="stop-color:#e5cf5c;stop-opacity:1;" />
      <stop
         style="stop-color:#e5c547;stop-opacity:1;"
         offset="0.5"
         id="stop23132" />
      <stop
         id="stop23134"
         offset="0.75"
         style="stop-color:#ffffa3;stop-opacity:1;" />
      <stop
         style="stop-color:#ffd94d;stop-opacity:1;"
         offset="0.875"
         id="stop23136" />
      <stop
         id="stop23138"
         offset="1"
         style="stop-color:#ffdb4e;stop-opacity:1;" />
    </linearGradient>
    <linearGradient
       inkscape:collect="always"
       xlink:href="#linearGradient4053-4-8-3-8"
       id="linearGradient15856"
       gradientUnits="userSpaceOnUse"
       gradientTransform="matrix(-1,0,0,1,-244.15419,-2002.8858)"
       x1="-649.14478"
       y1="2202.9722"
       x2="-483.65906"
       y2="2202.9722" />
    <filter
       id="filter16073"
       inkscape:collect="always"
       color-interpolation-filters="sRGB">
      <feGaussianBlur
         id="feGaussianBlur16075"
         stdDeviation="0.97566688"
         inkscape:collect="always" />
    </filter>
    <filter
       height="1.65625"
       y="-0.328125"
       width="1.2258065"
       x="-0.11290323"
       id="filter16157"
       inkscape:collect="always"
       color-interpolation-filters="sRGB">
      <feGaussianBlur
         id="feGaussianBlur16159"
         stdDeviation="3.1250001"
         inkscape:collect="always" />
    </filter>
    <filter
       id="filter16323"
       inkscape:collect="always"
       color-interpolation-filters="sRGB">
      <feGaussianBlur
         id="feGaussianBlur16325"
         stdDeviation="1.2664756"
         inkscape:collect="always" />
    </filter>
    <linearGradient
       id="linearGradient4053-4-8-3-8">
      <stop
         style="stop-color:#cc992d;stop-opacity:1;"
         offset="0"
         id="stop4055-9-6-3-1" />
      <stop
         style="stop-color:#e1a832;stop-opacity:1;"
         offset="0.14285725"
         id="stop4057-8-0-4-3" />
      <stop
         id="stop4059-2-1-2-6"
         offset="0.32142863"
         style="stop-color:#e5cf5c;stop-opacity:1;" />
      <stop
         style="stop-color:#e5c547;stop-opacity:1;"
         offset="0.5"
         id="stop4061-4-2-2-7" />
      <stop
         id="stop4063-5-6-0-8"
         offset="0.75"
         style="stop-color:#ffffa3;stop-opacity:1;" />
      <stop
         style="stop-color:#ffd94d;stop-opacity:1;"
         offset="0.875"
         id="stop4065-2-0-1-9" />
      <stop
         id="stop4067-9-5-2-5"
         offset="1"
         style="stop-color:#ffdb4e;stop-opacity:1;" />
    </linearGradient>
    <linearGradient
       gradientTransform="matrix(-1,0,0,1,-1495.6126,-1490.2322)"
       gradientUnits="userSpaceOnUse"
       y2="1821.4382"
       x2="-1792.9811"
       y1="1821.4382"
       x1="-1947.8149"
       id="linearGradient16219"
       xlink:href="#linearGradient4053-4-8-3-8"
       inkscape:collect="always" />
    <filter
       height="1.1926515"
       y="-0.09632577"
       width="1.3136762"
       x="-0.1568381"
       id="filter16291"
       inkscape:collect="always"
       color-interpolation-filters="sRGB">
      <feGaussianBlur
         id="feGaussianBlur16293"
         stdDeviation="0.91022121"
         inkscape:collect="always" />
    </filter>
    <linearGradient
       id="linearGradient16247"
       inkscape:collect="always">
      <stop
         id="stop16249"
         offset="0"
         style="stop-color:#ffffff;stop-opacity:1;" />
      <stop
         id="stop16251"
         offset="1"
         style="stop-color:#ffffff;stop-opacity:0;" />
    </linearGradient>
    <radialGradient
       gradientUnits="userSpaceOnUse"
       gradientTransform="matrix(1,0,0,1.542045,0,-597.54565)"
       r="8.0712862"
       fy="763.5155"
       fx="-781.42859"
       cy="763.5155"
       cx="-781.42859"
       id="radialGradient16253"
       xlink:href="#linearGradient16247"
       inkscape:collect="always" />
    <linearGradient
       inkscape:collect="always"
       xlink:href="#linearGradient23124"
       id="linearGradient6820"
       x1="204.63884"
       y1="488.50912"
       x2="443.58997"
       y2="488.50912"
       gradientUnits="userSpaceOnUse" />
  </defs>
  <sodipodi:namedview
     id="base"
     pagecolor="#ffffff"
     bordercolor="#666666"
     borderopacity="1.0"
     inkscape:pageopacity="0.0"
     inkscape:pageshadow="2"
     inkscape:zoom="1.4"
     inkscape:cx="232.35523"
     inkscape:cy="174.77525"
     inkscape:document-units="px"
     inkscape:current-layer="layer1"
     showgrid="false"
     fit-margin-top="0"
     fit-margin-left="0"
     fit-margin-right="0"
     fit-margin-bottom="0"
     inkscape:window-width="1600"
     inkscape:window-height="837"
     inkscape:window-x="-8"
     inkscape:window-y="-8"
     inkscape:window-maximized="1" />
  <metadata
     id="metadata5985">
    <rdf:RDF>
      <cc:Work
         rdf:about="">
        <dc:format>image/svg+xml</dc:format>
        <dc:type
           rdf:resource="http://purl.org/dc/dcmitype/StillImage" />
        <dc:title></dc:title>
      </cc:Work>
    </rdf:RDF>
  </metadata>
  <g
     inkscape:label="Laag 1"
     inkscape:groupmode="layer"
     id="layer1"
     transform="translate(-161.73717,-282.40625)">
    <path
       style="fill:#158acc;fill-opacity:1;stroke:#000000;stroke-width:0.99999994px;stroke-linecap:butt;stroke-linejoin:miter;stroke-opacity:0"
       d="m 334.57249,283.63576 -172.3294,0 0,355.66763 c -0.5677,20.25394 16.81967,37.26398 38.36841,35.41919 l 48.49678,0 44.97711,0 c 16.74679,1.03547 32.82563,3.98054 40.4871,30.99183 6.92896,-143.22501 7.38658,-284.0851 0,-422.07865 z"
       id="path2830"
       sodipodi:nodetypes="cccccccc"
       inkscape:connector-curvature="0" />
    <path
       style="fill:#158acc;fill-opacity:1;stroke:#000000;stroke-width:0.99999994px;stroke-linecap:butt;stroke-linejoin:miter;stroke-opacity:0"
       d="m 334.67631,283.63576 171.65208,0 0,355.6676 c 0.56553,20.25397 -16.75365,37.26401 -38.2176,35.41922 l -48.3062,0 -44.80035,0 c -16.68093,1.03547 -32.69661,3.98054 -40.32793,30.99181 -81.11719,-144.68226 -70.36185,-284.84618 0,-422.07863 z"
       id="path2830-1"
       sodipodi:nodetypes="cccccccc"
       inkscape:connector-curvature="0" />
    <path
       style="fill:#ffffff;fill-opacity:0.40528636;stroke:#000000;stroke-width:0.99999994px;stroke-linecap:butt;stroke-linejoin:miter;stroke-opacity:0"
       d="m 163.39072,283.62663 8.32199,9.36467 326.56813,0 8.04755,-9.36467 -342.93767,0 z"
       id="path10406"
       inkscape:connector-curvature="0" />
    <path
       style="fill:#ffffff;fill-opacity:0.2465116;stroke:#000000;stroke-width:0.99999994px;stroke-linecap:butt;stroke-linejoin:miter;stroke-opacity:0"
       d="m 162.24309,283.62663 8.01981,8.11688 0,347.5507 c 4.81997,13.79669 13.09348,23.57375 27.1976,26.5644 l 106.00099,0 c 14.40562,2.34444 27.29663,6.42503 30.68446,21.39912 l 0,19.55431 c -5.37764,-23.4239 -18.63975,-30.16265 -34.17133,-32.09864 l -103.56017,0 c -15.94644,0.42896 -35.26005,-15.95583 -33.82268,-35.41919 l -0.34868,-355.66758 z"
       id="path4051"
       sodipodi:nodetypes="ccccccccccc"
       inkscape:connector-curvature="0" />
    <path
       style="fill:#000000;fill-opacity:0.18604653;stroke:#000000;stroke-width:0.99999994px;stroke-linecap:butt;stroke-linejoin:miter;stroke-opacity:0"
       d="m 506.32839,283.62661 -8.01979,8.1169 0,347.55077 c -4.82006,13.79667 -13.09348,23.57366 -27.19767,26.56435 l -106.00088,0 c -14.40564,2.34449 -27.29668,6.42503 -30.68451,21.3991 l 0,19.55431 c 5.37768,-23.4239 18.63978,-30.16267 34.17138,-32.09861 l 103.56011,0 c 15.94635,0.42891 35.26004,-15.95586 33.82259,-35.41915 l 0.34877,-355.66767 z"
       id="path4051-6"
       sodipodi:nodetypes="ccccccccccc"
       inkscape:connector-curvature="0" />
    <path
       style="fill:url(#linearGradient6820);fill-opacity:1.0;stroke:#000000;stroke-width:3.86187601000000000px;stroke-linecap:butt;stroke-linejoin:miter;stroke-opacity:0"
       d="m 317.53687,343.29645 c -15.13843,-4.63554 -22.77221,-0.83353 -29.17796,4.34919 -7.73659,-5.01464 -15.47316,-1.10702 -23.20975,6.8344 -11.36935,-0.29709 -13.8058,7.77531 -18.5678,13.66886 -3.39203,3.17244 -12.17409,0.0323 -9.2839,10.56228 -6.98321,6.006 -11.89724,12.012 -6.63135,18.01799 -2.55394,10.64067 -5.98234,20.95359 0,34.7934 -10.99603,4.76336 -11.86695,9.52676 -10.61018,14.29013 -5.10273,5.73181 -18.80651,4.41235 -11.27331,20.50325 l 15.91528,8.07705 c -3.88433,7.04882 -13.76377,11.99128 -4.64197,23.60978 l 17.90466,3.10656 -7.29448,9.31966 4.64194,9.31965 9.94704,0 2.65254,17.3967 11.27331,4.34919 c 11.06499,-1.23966 16.451,-1.47957 20.5572,-4.34919 l 9.2839,-6.2131 9.94703,4.97048 3.97882,20.50324 13.26271,17.3967 -0.66313,11.18359 c -14.44393,10.10924 -34.22634,19.10698 -33.81992,32.30815 4.70578,15.13074 17.68289,24.17248 47.08263,21.12456 l 28.51483,-11.18359 c 32.11806,-12.79259 68.22249,-21.47674 83.55509,-51.56878 3.29087,-13.86596 -4.36252,-23.33739 -13.26271,-32.30814 l -28.51483,-44.73436 12.59957,3.10655 4.64195,-6.21311 -1.32627,-5.59178 8.62077,-14.29015 -3.31569,-11.8049 0.66314,-3.72787 9.2839,3.10655 5.96822,-7.45572 -3.97881,-13.66883 -13.92585,0.62131 -7.29449,2.48524 1.32627,-32.30817 -4.64195,-23.60978 c 2.38035,-7.5513 -6.75613,-13.30417 -14.58898,-19.26063 l -4.64195,-3.72785 c 0.62619,-9.22756 -8.807,-12.17184 -18.5678,-14.91147 l -20.55721,-3.10655 c -10.61017,-10.68758 -21.22034,-14.13107 -31.83051,-4.97049 z"
       id="path2830-17"
       sodipodi:nodetypes="ccccccccccccccccccccccccccccccccccccccccccccccc"
       inkscape:connector-curvature="0" />
    <path
       style="fill:#26220f;fill-opacity:1"
       d="m 298.8377,639.79364 c -10.44825,-3.75813 -19.96165,-13.48358 -20.84374,-21.30836 -0.8751,-7.7649 1.17026,-12.26818 8.93536,-19.67257 3.91826,-3.73628 10.22048,-8.41203 14.17581,-10.51746 9.99036,-5.31785 10.62137,-5.99563 10.62137,-11.41005 0,-4.21806 -0.49943,-5.16216 -5.8884,-11.13323 -5.28897,-5.86008 -9.11166,-13.1126 -9.11166,-17.28708 0,-2.51725 -5.95302,-10.58525 -8.95655,-12.13837 -2.95691,-1.5291 -3.35696,-1.46229 -10.80698,1.80539 -4.25495,1.86628 -10.2815,3.70808 -13.39203,4.09286 -5.20696,0.64411 -6.22318,0.4137 -12.81463,-2.90567 -5.25188,-2.64488 -7.06544,-4.05943 -6.808,-5.31014 0.19282,-0.9377 -0.30152,-2.20272 -1.09907,-2.81115 -0.79755,-0.60846 -1.71397,-3.03734 -2.03646,-5.39753 -0.56024,-4.10066 -0.79374,-4.35166 -5.25951,-5.65164 -7.6901,-2.23852 -11.02883,-9.99967 -6.32532,-14.70321 2.21022,-2.21004 1.87755,-2.64137 -2.03668,-2.64137 -4.40602,0 -7.47693,-1.96709 -10.99386,-7.04219 -3.35739,-4.84459 -3.05227,-9.61106 1.00816,-15.74663 1.49064,-2.25266 2.42296,-4.56076 2.07164,-5.1291 -0.3511,-0.56834 -3.57901,-2.6777 -7.17265,-4.68742 -10.4188,-5.82656 -12.0084,-12.01009 -4.78976,-18.63223 7.12774,-6.53883 10.00117,-9.39188 14.48877,-14.38642 2.51724,-2.80168 5.21713,-5.31232 5.99985,-5.57921 1.16412,-0.39694 1.01368,-1.33739 -0.82679,-5.16777 -2.56089,-5.32937 -2.93954,-12.36518 -0.88421,-16.42869 2.40261,-4.75029 4.01318,-13.22127 2.75328,-14.48119 -0.61553,-0.61553 -1.11919,-3.01968 -1.11919,-5.34255 0,-3.2867 0.77636,-5.24036 3.49998,-8.80865 1.92501,-2.52189 3.49998,-5.40291 3.49998,-6.40228 0,-2.78737 4.22274,-6.16566 7.70705,-6.16566 2.52487,0 3.77099,-0.91054 6.93555,-5.06804 4.16278,-5.46919 8.87116,-8.93196 12.14443,-8.93196 2.22314,0 8.1965,-3.05935 8.20667,-4.20321 0,-0.38676 2.1439,-1.66022 4.75649,-2.8299 3.44744,-1.54357 5.89921,-1.97514 8.94109,-1.57397 3.57181,0.47101 4.28439,0.25947 4.8209,-1.43108 1.41669,-4.46371 10.25035,-6.62565 20.7931,-5.08895 6.45965,0.94153 6.99276,0.86331 10.49995,-1.54025 3.25674,-2.23184 4.44205,-2.4742 9.99503,-2.04352 4.89506,0.37964 7.57164,1.26461 12.00012,3.9674 9.50365,5.80042 10.4169,6.12219 16.75005,5.90094 5.32371,-0.18597 6.33549,0.0921 8.42429,2.31559 1.62688,1.73179 3.43303,2.52695 5.73944,2.52695 1.85106,0 5.09932,0.88447 7.21821,1.9655 4.80819,2.45286 11.06782,9.63439 11.06782,12.69765 0,1.75701 1.17683,2.89953 4.96308,4.81814 9.86577,4.99946 13.82068,10.1674 11.85244,15.48818 -0.58969,1.59422 -0.42208,2.62755 0.55324,3.40908 0.76958,0.61679 1.63981,2.24645 1.93391,3.62145 0.2939,1.375 1.22621,4.3 2.07186,6.5 2.21191,5.75454 2.30493,34.69112 0.11654,36.5067 -1.51967,1.26109 -7.94415,0.97685 -11.99208,-0.53054 -1.27663,-0.47543 -0.49646,0.802 2.15724,3.5321 4.39268,4.51898 7.04574,4.84396 8.05433,0.98668 0.60537,-2.31435 3.28852,-2.7182 3.28852,-0.49495 0,1.20904 1.56056,1.50001 8.04543,1.50001 7.2087,0 8.30078,0.25525 10.49998,2.45455 1.34994,1.35 2.45452,3.15001 2.45452,4.00001 0,1.94019 -0.47739,1.9339 -3.49935,-0.046 -1.33596,-0.87539 -5.05125,-1.82934 -8.25586,-2.11995 -5.71422,-0.51814 -5.88903,-0.45772 -9.0358,3.12638 -2.29137,2.6097 -3.20906,4.64551 -3.20906,7.1199 0,4.45354 1.61248,4.4665 6.89212,0.0553 6.75058,-5.63979 16.10804,-5.77299 16.10804,-0.22928 0,1.2598 -1.05711,3.28362 -2.34921,4.49742 -1.97163,1.85225 -2.7855,2.04099 -5.06502,1.17431 -4.47785,-1.70246 -5.58582,-1.31227 -5.58582,1.9674 0,2.85387 -0.20341,3.00001 -4.17125,3.00001 -2.41681,0 -4.9135,0.67162 -5.93565,1.59674 -1.67668,1.51744 -1.61502,1.89051 1.24082,7.51072 3.39807,6.68664 3.73116,6.68836 9.2532,0.0479 4.82641,-5.80401 4.59672,-3.38086 -0.38712,4.08246 -2.20005,3.29454 -4.01,6.5013 -4.02229,7.12611 -0.0212,0.62483 -0.84798,2.21001 -1.85721,3.5226 l -1.83517,2.38658 -0.71047,-2.88657 c -1.3974,-5.67854 -3.24529,-7.38653 -7.99097,-7.38653 -5.17603,0 -5.95239,1.22781 -5.01075,7.9236 0.8003,5.69034 2.85202,9.07638 5.49958,9.07638 2.91729,0 7.68945,-2.68708 8.94786,-5.03835 1.31711,-2.46129 2.97938,-1.66736 2.97938,1.42306 0,2.84269 -3.90893,6.6153 -6.85419,6.6153 -1.22409,0 -4.03607,-0.92369 -6.24904,-2.05265 -3.85807,-1.96828 -3.98139,-1.97407 -3.00013,-0.14078 0.56277,1.05159 3.73285,5.56658 7.04467,10.03331 3.31204,4.46674 8.57961,12.06756 11.70603,16.89069 3.12642,4.82315 7.63479,11.27236 10.01856,14.3316 2.38375,3.05922 4.33419,5.89052 4.33419,6.29172 0,0.40124 2.02503,4.18883 4.49989,8.41686 3.5718,6.10144 4.50004,8.63883 4.50004,12.29933 0,6.40665 -2.15358,12.91414 -6.12629,18.51273 -3.71081,5.22934 -23.30824,21.41712 -25.92825,21.41712 -0.90498,0 -3.4004,1.23931 -5.54535,2.75398 -2.14517,1.5147 -6.60014,3.94627 -9.9001,5.40348 -16.53413,7.30121 -25.52967,10.84254 -27.54113,10.84254 -1.2226,0 -3.71739,0.92377 -5.5443,2.05281 -4.08585,2.52522 -19.48574,7.61247 -28.9146,9.55166 -19.17151,3.94302 -26.46092,4.23662 -34.38875,1.3851 z m 43.657,-7.5926 c 8.59444,-3.54637 13.38122,-5.27016 28.2319,-10.1666 10.16707,-3.35227 25.39999,-9.95623 31.49456,-13.65409 13.64036,-8.27588 25.62015,-19.51388 31.53188,-29.57915 3.76272,-6.40652 4.40581,-8.3056 4.4217,-13.05478 0.0212,-5.24784 -0.30215,-5.97249 -5.73202,-12.99999 -3.16287,-4.09331 -9.37167,-11.49237 -13.79761,-16.44237 -6.46601,-7.23199 -9.13094,-11.25912 -13.56599,-20.49999 -3.03531,-6.325 -6.70693,-13.06405 -8.15879,-14.97568 -1.85954,-2.44832 -2.68315,-4.81295 -2.78655,-8 -0.0805,-2.48837 -0.20554,-5.08683 -0.27694,-5.77432 -0.0763,-0.73708 -1.5665,-1.25001 -3.6303,-1.25001 -3.84939,0 -4.26469,1.0383 -2.00002,5.00002 0.7859,1.37499 1.44508,4.12451 1.46458,6.11003 0.0593,6.03121 14.26522,31.04909 20.66364,36.38996 0.65897,0.54999 3.6875,4.82499 6.73023,9.5 3.04294,4.67499 6.44694,9.625 7.56465,10.99999 1.11793,1.375 2.0424,2.99929 2.05469,3.60954 0.0212,0.61024 1.40909,3.79878 3.10441,7.08561 2.9531,5.7263 3.02006,6.12416 1.60188,9.5184 -2.23755,5.35553 -3.2169,5.16664 -2.88593,-0.55671 0.2797,-4.83636 0.0212,-5.49864 -4.26005,-10.65684 -7.74518,-9.34545 -26.20411,-37.49616 -30.97628,-47.24003 -3.40845,-6.95929 -5.15971,-12.33598 -7.04849,-21.64057 -1.38237,-6.80931 -2.51343,-13.46917 -2.51343,-14.79966 0,-1.33048 -0.65982,-3.69511 -1.46627,-5.25473 -1.44466,-2.79371 -1.61968,-2.84135 -11.82257,-3.21904 -7.64009,-0.2828 -11.04896,-0.83739 -12.99834,-2.11466 -3.66165,-2.39917 -4.53676,-2.21923 -8.36178,1.71912 -3.09188,3.18357 -3.35102,3.94472 -3.35102,9.84108 0,11.39504 -4.33102,20.75991 -11.25788,24.34187 -2.49606,1.29079 -4.81582,1.50315 -11.11401,1.01746 -8.81141,-0.67949 -11.70412,-2.37747 -14.25696,-8.3687 -2.41342,-5.6643 -1.49255,-6.86512 1.56628,-2.04204 5.52819,8.7172 11.6753,10.49958 21.62583,6.27053 3.54024,-1.50462 6.43677,-3.21853 6.43677,-3.80869 0,-0.59017 0.98422,-2.12069 2.18712,-3.40118 1.58514,-1.6872 2.30387,-3.94102 2.61111,-8.18685 0.49073,-6.7845 -1.01368,-8.80108 -3.90321,-5.23248 -1.73008,2.13649 -1.81081,2.14448 -2.80965,0.27788 -0.72784,-1.35999 -2.57403,-2.11486 -6.31557,-2.58234 -2.90775,-0.36331 -5.91722,-1.05012 -6.68764,-1.52624 -2.18755,-1.35197 -3.88584,-0.17562 -5.11247,3.54117 -1.98285,6.00791 0.72085,12.59717 6.80694,16.5896 2.31256,1.51695 2.41787,1.80663 0.87299,2.3995 -0.96643,0.37084 -3.51842,-0.1201 -5.67122,-1.09071 -4.75373,-2.14364 -6.30476,-5.93599 -6.40774,-15.66613 -0.0847,-7.97496 1.75445,-11.15275 8.42641,-14.5626 5.77186,-2.9499 7.04743,-4.26155 4.14392,-4.26155 -1.25142,0 -1.98329,-0.44605 -1.64087,-1.00001 0.77657,-1.25676 5.51335,-1.27704 7.48244,-0.0321 1.2404,0.78433 1.02109,1.41873 -1.34253,3.88583 -1.57391,1.64297 -2.66811,3.76199 -2.47084,4.78584 0.89989,4.67262 9.19514,1.61524 12.74259,-4.69645 1.36944,-2.43664 4.17739,-5.0807 7.51719,-7.07825 7.22393,-4.32083 8.58214,-6.97351 9.28328,-18.13091 0.38903,-6.19139 1.02618,-9.49753 1.93392,-10.03372 0.74457,-0.43985 1.35376,-1.47891 1.35376,-2.30904 0,-0.83013 -0.44985,-1.23121 -0.99991,-0.89129 -0.59329,0.36667 -0.9999,-0.79332 -0.9999,-2.85209 0,-2.67675 -0.73229,-4.08615 -3.20228,-6.16458 -2.85246,-2.40021 -3.83689,-2.64856 -9.01334,-2.27411 -8.26643,0.59792 -11.12757,2.96034 -11.82363,9.76252 -0.39793,3.89064 -1.14611,5.75985 -2.86071,7.14825 -3.01264,2.43955 -7.18029,2.39134 -10.37304,-0.11998 -1.39846,-1.1 -3.92206,-2 -5.60806,-2 -1.68601,0 -5.06945,-0.97363 -7.51889,-2.16362 -3.60996,-1.75379 -4.78085,-3.02081 -6.18165,-6.68901 l -1.72817,-4.52538 3.38832,-2.82886 c 2.7749,-2.31647 3.19401,-3.14259 2.31404,-4.56099 -1.64278,-2.64816 -6.95865,-4.88984 -17.25879,-7.2778 -9.30405,-2.15703 -9.38373,-2.15851 -12.00013,-0.22296 -1.44848,1.07166 -3.18067,3.06158 -3.84897,4.42204 -0.6683,1.36046 -2.19072,3.34499 -3.38281,4.41007 l -2.16784,1.9365 0.75115,-2.5 c 0.71153,-2.36765 1.67795,-3.77543 5.76614,-8.39929 2.1102,-2.38665 1.16497,-3.21117 -4.73106,-4.12695 -2.21127,-0.34345 -7.38773,-1.54352 -11.50346,-2.6668 -10.50695,-2.86755 -20.43437,-2.18543 -23.7159,1.62952 -1.26562,1.47128 -2.3026,3.66246 -2.30472,4.86928 -0.002,1.20683 -0.86535,3.60734 -1.91866,5.33447 -2.98551,4.8963 -2.89673,7.37216 0.61809,17.22405 l 1.55696,4.36429 -5.41059,5.15756 c -2.97577,2.83665 -6.00536,6.59407 -6.73278,8.34977 -0.78801,1.90238 -3.24106,4.42348 -6.07105,6.23959 -6.89995,4.42761 -8.41433,6.39439 -7.69454,9.99309 0.9927,4.9633 3.54533,8.03142 6.68214,8.03142 1.53789,0 5.64854,0.89418 9.13496,1.98709 9.36931,2.93692 12.22219,2.68846 15.28823,-1.33148 1.78156,-2.33575 2.55093,-4.5882 2.55093,-7.46862 0,-3.25512 0.31614,-4.00291 1.49996,-3.54863 1.97629,0.75836 1.98477,7.52359 0.0212,11.33413 -1.06983,2.06893 -3.09655,3.47587 -7.24067,5.02639 -9.60939,3.59531 -18.27353,11.32632 -18.27353,16.30543 0,0.77202 1.10352,2.59435 2.4524,4.04967 1.95002,2.10418 3.37137,2.64601 6.94085,2.64601 2.46894,0 4.7531,-0.42773 5.07623,-0.95054 0.32525,-0.52622 2.19962,0.14333 4.19858,1.49999 1.98604,1.34782 4.78573,2.47044 6.22149,2.49476 2.38884,0.0404 2.27103,0.22022 -1.38957,2.119 -6.04435,3.13523 -7.50002,4.78329 -7.50002,8.49178 0,3.97898 2.9461,7.34502 6.42871,7.34502 2.94378,0 5.57141,-2.42286 5.57141,-5.13717 0,-3.75565 5.25719,-10.43987 7.24492,-9.21141 1.37918,0.85232 0.78356,1.99541 -1.74491,3.34859 -2.06783,1.10662 -2.50008,2.0766 -2.50008,5.60994 0,2.3496 0.45005,4.55013 1.00012,4.89005 1.53153,0.94659 1.18806,6.09898 -0.50006,7.49999 -3.75277,3.11446 -0.35682,7.62596 8.26876,10.98522 4.19307,1.63296 10.72879,0.76242 14.34426,-1.91063 1.54318,-1.14102 3.69767,-2.07458 4.78742,-2.07458 1.16666,0 4.13565,-2.44698 7.21821,-5.94919 5.20442,-5.9123 6.88131,-6.65523 6.88131,-3.04851 0,3.16573 3.87228,4.9977 10.56352,4.9977 8.59931,0 14.083,-1.93246 24.16977,-8.51724 11.66132,-7.61258 13.71961,-9.65685 18.61065,-18.48277 3.86125,-6.96802 4.18015,-7.28926 4.49374,-4.52922 0.18647,1.63391 -0.15256,3.1339 -0.74987,3.33331 -0.59838,0.19931 -1.08784,0.92164 -1.08784,1.60494 0,0.68328 -1.12492,2.29924 -2.49987,3.59098 -1.37516,1.29176 -2.50008,2.90966 -2.50008,3.59536 0,1.8995 -8.01386,9.50172 -14.6123,13.86195 -24.40517,16.12633 -23.38768,15.03093 -23.38768,25.17755 0,8.10717 -0.30067,7.63795 11.28352,17.60858 3.15969,2.71951 3.92355,4.15446 4.63147,8.70134 0.92405,5.93421 3.30992,8.75019 8.25075,9.73836 1.53408,0.30684 3.28153,1.15097 3.88329,1.87585 0.85836,1.03449 0.20342,1.58471 -3.04612,2.55832 -2.27696,0.68219 -4.75945,2.12457 -5.51632,3.20531 -1.32579,1.89292 -1.40164,1.86384 -2.06846,-0.7929 -0.6541,-2.60638 -0.94566,-2.73224 -5.30528,-2.29176 -4.34161,0.4387 -12.8534,4.58944 -20.66618,10.07782 -4.14349,2.91087 -8.61901,10.31388 -9.18666,15.19631 -0.33521,2.88295 0.19917,5.41367 1.89789,8.99217 2.21614,4.66805 2.86495,5.19627 10.35332,8.43127 8.13082,3.51264 14.56335,4.57475 29.75707,4.91356 5.69728,0.12706 8.14968,-0.41916 15.49991,-3.45213 z m -15.46388,-20.35302 c -3.90956,-2.38377 -5.09572,-7.10566 -3.19274,-12.70916 1.68261,-4.9548 3.53177,-7.11036 8.09861,-9.44121 5.41462,-2.7635 5.48136,-2.38739 0.4456,2.50693 -6.41896,6.23857 -7.48307,13.77228 -2.63039,18.62493 3.51927,3.51917 2.19369,4.01532 -2.72108,1.01851 z m 14.69557,-23.43734 c 0,-0.25507 0.76662,-1.23025 1.70338,-2.16711 1.60464,-1.60448 1.57561,-1.66276 -0.49985,-1.00404 -1.33172,0.42267 -2.20343,0.27707 -2.20343,-0.36807 0,-0.58706 0.41551,-1.06739 0.9232,-1.06739 1.89196,0 7.48943,-5.60629 10.86271,-10.87933 3.30843,-5.17223 3.39255,-5.51702 1.65358,-6.78858 -1.38427,-1.01216 -1.54997,-1.62164 -0.67805,-2.49346 0.87172,-0.87183 1.55697,-0.81929 2.80309,0.21488 2.54267,2.11015 1.17704,9.30296 -2.62213,13.81037 -6.31006,7.48673 -11.9425,12.55316 -11.9425,10.74263 z m -2.99992,-22.60661 c 0,-0.55001 0.63821,-0.99999 1.41817,-0.99999 0.78018,0 2.24264,-0.31233 3.25017,-0.69406 1.71566,-0.65009 1.72541,-0.58674 0.15256,0.99999 -1.8375,1.85434 -4.82154,2.28391 -4.82154,0.69406 z m -1.49997,-3.00001 c -0.33987,-0.54998 0.21846,-0.99999 1.24104,-0.99999 1.02236,0 2.34815,-0.48922 2.9461,-1.08713 0.78294,-0.78284 1.27515,-0.78284 1.75911,0 0.37398,0.60527 -0.0212,1.08713 -0.88718,1.08713 -0.85752,0 -1.55908,0.45001 -1.55908,0.99999 0,0.55001 -0.64838,1 -1.44106,1 -0.79246,0 -1.71906,-0.44999 -2.05893,-1 z m -3.49998,-1.99999 c 0,-0.55001 0.19918,-1.00001 0.44094,-1.00001 0.24261,0 0.71915,0.45 1.05902,1.00001 0.33987,0.54999 0.14197,1 -0.44094,1 -0.58248,0 -1.05902,-0.45001 -1.05902,-1 z m 2.00002,-2.00001 c 0,-0.54999 0.67487,-0.99999 1.49996,-0.99999 0.8251,0 1.49997,0.45 1.49997,0.99999 0,0.55001 -0.67487,1 -1.49997,1 -0.82509,0 -1.49996,-0.44999 -1.49996,-1 z m 4.00004,-1.99999 c 0,-0.55001 0.19918,-0.99999 0.44095,-0.99999 0.2424,0 0.71915,0.44998 1.05902,0.99999 0.33987,0.54999 0.14196,1 -0.44094,1 -0.58249,0 -1.05903,-0.45001 -1.05903,-1 z m -5.65362,-2.13403 c 1.32325,-0.76916 2.15894,-0.76054 2.94992,0.0304 0.80475,0.80481 0.30491,1.09537 -1.8464,1.07319 -2.58611,-0.0267 -2.72214,-0.16284 -1.10352,-1.1036 z m 5.65362,-0.86598 c 0,-0.54999 0.19918,-0.99999 0.44095,-0.99999 0.2424,0 0.71915,0.45 1.05902,0.99999 0.33987,0.55001 0.14196,1 -0.44094,1 -0.58249,0 -1.05903,-0.44999 -1.05903,-1 z m -7.50002,-1.99999 c -0.34009,-0.55001 -0.14197,-0.99999 0.44094,-0.99999 0.58248,0 1.05902,0.44998 1.05902,0.99999 0,0.54999 -0.19918,1 -0.44094,1 -0.24261,0 -0.71915,-0.45001 -1.05902,-1 z m -83.53835,-55.84879 c -1.90403,-2.11684 -4.13671,-4.08022 -4.96181,-4.36309 -0.82488,-0.28287 -1.17683,-0.8615 -0.78187,-1.28583 1.28575,-1.38169 6.97158,1.76153 8.89659,4.91802 3.5786,5.86858 1.83221,6.27343 -3.15291,0.7309 z m -14.71167,-7.64208 c -1.7875,-0.77692 -3.24996,-2.06116 -3.24996,-2.85387 0,-0.7927 -0.70368,-1.71125 -1.56353,-2.0412 -0.85984,-0.32998 -1.2832,-1.05312 -0.941,-1.60702 1.12196,-1.81533 3.53537,-1.0557 4.47192,1.40754 0.54435,1.43189 2.34413,2.93025 4.42213,3.68162 1.92713,0.69689 3.27623,1.63533 2.99823,2.08543 -0.70898,1.14692 -2.37061,0.96485 -6.13779,-0.6725 z m 27.99987,-18.06575 c -1.64468,-1.78804 -1.57751,-2.4434 0.25003,-2.4434 0.8251,0 1.38745,-0.54146 1.25015,-1.20328 -0.13773,-0.66181 0.42484,-1.26827 1.24993,-1.34769 3.18003,-0.30612 3.3237,-0.49189 1.44276,-1.86726 -2.47127,-1.80695 -1.29486,-3.10809 1.47157,-1.62759 2.78019,1.48793 2.65285,2.17881 -1.16434,6.32133 -2.69628,2.92602 -3.4629,3.29535 -4.5001,2.16789 z m -33.24985,-5.32674 c 0,-2.37495 -3.41819,-3.33894 -6.63764,-1.872 -1.97035,0.89772 -2.7571,0.78921 -4.11361,-0.56729 -1.56989,-1.5698 -1.28151,-1.67735 4.49798,-1.67735 5.06479,0 6.54186,0.39353 8.21431,2.18856 2.56936,2.75787 2.57996,3.81143 0.0381,3.81143 -1.2921,0 -2.00003,-0.66667 -2.00003,-1.88335 z m 41.63558,-4.30996 c -1.5754,-1.60118 -2.55136,-3.22441 -2.16848,-3.60714 0.38268,-0.38274 1.60761,0.55572 2.72193,2.08545 1.63346,2.24227 2.30345,2.55111 3.4574,1.59347 1.21285,-1.00671 1.01558,-1.62184 -1.29465,-4.03318 -3.05014,-3.18352 -1.49021,-3.98355 1.64808,-0.84528 3.00183,3.00168 4.27083,2.4244 2.44266,-1.11104 -1.2279,-2.37438 -1.29316,-3.01022 -0.27567,-2.68531 0.73313,0.23416 1.77732,1.40912 2.32018,2.61103 1.47454,3.2641 3.70425,2.82933 2.89632,-0.56467 l -0.65453,-2.75001 2.88551,2.61616 c 1.58705,1.43887 3.78561,3.15734 4.88552,3.81878 1.87416,1.1269 1.84598,1.16946 -0.44793,0.67571 -1.34634,-0.28984 -3.03383,-0.0406 -3.75001,0.55364 -0.93782,0.77836 -1.30206,0.76665 -1.30206,-0.0418 0,-0.61733 -0.67487,-1.12244 -1.49996,-1.12244 -0.82489,0 -1.49997,0.43589 -1.49997,0.96864 0,0.53273 -0.71767,0.6932 -1.59489,0.35658 -0.99715,-0.38267 -2.40261,0.32584 -3.75001,1.89034 l -2.15513,2.50238 -2.86431,-2.91125 z m 62.11445,-2.37241 c -3.91423,-2.03755 -4.74738,-2.95309 -4.73488,-5.20345 0.0233,-4.04467 1.05733,-5.07059 7.04934,-6.98983 l 5.43538,-1.741 0.28605,-10.96322 c 0.30851,-11.82304 0.62062,-12.49579 5.80894,-12.52146 3.53007,-0.0174 6.40499,2.59204 6.40499,5.81343 0,2.73938 -0.71831,2.74048 -2.93382,0.004 -3.38324,-4.17794 -4.78149,-1.88804 -5.23917,8.58006 -0.4009,9.16529 -0.5543,9.71012 -3.62288,12.87609 -2.25026,2.32169 -3.20398,4.25915 -3.20398,6.50821 0,4.04667 1.4828,4.07731 6.27213,0.12962 2.98086,-2.4571 3.72777,-3.75948 3.72777,-6.49999 0,-1.88496 0.45005,-3.4272 1.00011,-3.4272 0.54986,0 0.99991,1.51251 0.99991,3.36116 0,2.58029 -1.00351,4.43888 -4.31978,8 -2.37613,2.55135 -5.18853,4.6179 -6.2501,4.59227 -1.06156,-0.0256 -4.06763,-1.15923 -6.68001,-2.51915 z m -95.6868,-15.0105 c 1.05351,-1.26932 1.06072,-1.72903 0.0381,-2.36126 -0.91388,-0.5648 -0.68546,-0.93797 0.81429,-1.33015 1.14653,-0.29983 2.08457,-0.10756 2.08457,0.427 0,1.71933 -2.03626,4.84065 -3.15779,4.84065 -0.68949,0 -0.60876,-0.57652 0.221,-1.57624 z m 15.9366,-1.87845 c -3.15121,-1.85859 -0.38754,-2.13474 3.52457,-0.35218 1.98921,0.90626 2.79206,0.9129 3.33916,0.0276 0.39623,-0.64105 2.50135,-1.5356 4.6783,-1.98791 4.87832,-1.01354 4.55561,-2.41336 -0.86027,-3.73283 -3.10206,-0.75576 -4.27274,-1.61061 -4.79336,-3.5 -0.4884,-1.77228 -0.71788,-1.95945 -0.78865,-0.64301 -0.0657,1.22135 -0.61299,1.65996 -1.59955,1.28138 -0.8251,-0.31658 -1.50017,-0.20946 -1.50017,0.23803 0,1.42503 3.41247,3.92529 6.00006,4.39623 1.93476,0.35212 1.69723,0.48581 -1.04991,0.5912 -4.23651,0.16261 -5.95006,-1.28676 -5.95006,-5.03244 0,-2.13872 -0.36784,-2.6275 -1.61629,-2.14837 -1.36456,0.52361 -1.44254,0.29526 -0.50006,-1.46565 0.61406,-1.14724 1.11623,-3.01547 1.11623,-4.15163 0,-1.13616 0.36022,-2.06574 0.8001,-2.06574 0.44009,0 3.63263,2.28246 7.09468,5.07212 3.46185,2.78967 6.45181,4.91474 6.64421,4.72237 0.50345,-0.50344 -7.72039,-9.0716 -10.06431,-10.48568 -1.94896,-1.17571 -1.9479,-1.19196 0.0848,-1.25 2.63421,-0.0752 4.23121,1.2014 9.85835,7.88142 4.97093,5.90096 5.52904,7.92546 2.83275,10.2742 -3.46248,3.01613 -13.73465,4.40416 -17.25011,2.3309 z m -12.41585,-4.90388 c 0.34644,-0.90279 1.03169,-1.64144 1.52285,-1.64144 1.28595,0 1.10542,0.57887 -0.62974,2.019 -1.27345,1.05677 -1.41965,0.99491 -0.89311,-0.37756 z m 1.08254,-12.30811 c -1.24485,-1.24497 -0.67232,-2.06129 3.9975,-5.69956 4.02378,-3.13482 5.39194,-3.63378 9.96515,-3.63378 4.51429,0 5.83097,0.46509 8.86946,3.13309 4.30284,3.77788 3.98437,4.74139 -0.63588,1.92454 -1.92522,-1.17372 -5.09572,-2.05175 -7.41675,-2.05389 -3.32263,-0.003 -4.66559,0.62751 -7.446,3.49627 -3.20821,3.30993 -5.83987,4.32676 -7.33348,2.83333 z m 151.15916,46.79547 c 0.72932,-0.46229 1.56501,-2.62336 1.8572,-4.80231 0.47845,-3.56617 0.17163,-4.3045 -3.07493,-7.39413 -1.98371,-1.88781 -5.74431,-4.60137 -8.35733,-6.03014 -4.56515,-2.4963 -6.03863,-4.80622 -3.58728,-5.62333 0.63969,-0.21325 4.91476,2.96874 9.49983,7.07117 4.58528,4.10244 8.67432,7.25038 9.08666,6.99543 1.46796,-0.90721 0.71576,-4.27174 -1.49997,-6.70917 -1.23743,-1.36136 -6.29988,-4.56688 -11.24983,-7.12334 -4.95015,-2.55648 -9.91704,-5.74272 -11.03772,-7.08057 -2.34816,-2.8033 -3.46227,-3.08838 -3.46227,-0.88592 0,0.85059 1.34698,2.31308 2.99357,3.25001 4.04093,2.29935 3.77692,3.98286 -0.74373,4.74552 -6.47745,1.09277 -7.05231,1.44486 -9.68164,5.93179 -3.08299,5.2607 -3.17813,6.66436 -0.60855,8.98971 4.56388,4.13037 10.54742,-1.41056 8.04564,-7.45053 -1.52242,-3.67521 -0.93464,-4.58073 1.96528,-3.02865 2.99674,1.60378 4.10026,5.04529 2.40134,7.48816 -2.34795,3.3758 -1.74216,5.5275 1.55653,5.5275 1.61078,0 3.63581,-0.70714 4.5001,-1.57143 1.86696,-1.86702 1.87946,-1.98428 0.49032,-4.57998 -1.51289,-2.82673 -0.61024,-3.25746 2.95839,-1.41199 4.26639,2.20627 5.75364,5.20878 3.70234,7.47533 -1.61693,1.78661 -2.10618,5.22824 -0.91303,6.42139 0.91536,0.91541 3.55804,0.81064 5.15908,-0.20443 z m 5.3824,-27.41665 c -4.55815,-4.64454 -5.05334,-5.71215 -2.64903,-5.71215 0.8573,0 1.27472,-0.45998 0.92722,-1.02218 -1.19759,-1.93783 -11.27928,-8.88446 -17.62493,-12.14431 -3.49872,-1.79732 -8.83642,-5.10009 -11.86135,-7.33949 -9.92234,-7.34542 -18.34472,-12.20579 -28.50014,-16.44671 -5.50001,-2.29683 -15.39989,-6.82708 -21.99981,-10.06723 -9.58671,-4.70633 -13.84526,-6.19915 -21.17408,-7.42244 -9.32524,-1.55651 -14.32604,-3.20346 -14.32604,-4.71816 0,-0.46171 2.02503,-0.83948 4.5001,-0.83948 3.60678,0 4.50625,-0.34731 4.53168,-1.75 0.0297,-1.58303 0.14832,-1.5977 1.25014,-0.15367 1.60506,2.10353 7.09935,4.90368 9.62146,4.90368 3.55338,0 6.86352,-2.15137 8.75251,-5.68833 1.67392,-3.1344 1.69765,-3.5619 0.25638,-4.63237 -1.87628,-1.39351 -1.39359,-3.67931 0.77679,-3.67931 0.83717,0 2.85923,1.12501 4.49332,2.50001 4.34733,3.65797 9.11738,3.39013 12.87396,-0.72287 4.27062,-4.67559 3.93308,-7.85273 -1.13636,-10.70198 -2.83063,-1.59095 -4.97431,-2.1143 -6.99997,-1.70914 -1.60612,0.32119 -2.92005,0.40704 -2.92005,0.19076 0,-1.5743 1.45314,-3.55678 2.60709,-3.55678 0.76619,0 1.39296,-0.60526 1.39296,-1.34502 0,-2.18625 3.65127,-4.84172 6.16745,-4.48534 2.75943,0.39083 2.22145,2.23928 -0.66745,2.2931 -3.04082,0.0567 -2.51067,3.68049 0.80455,5.49891 2.71811,1.49097 2.89525,1.43778 5.75003,-1.72743 3.81867,-4.23397 3.91402,-8.32714 0.26105,-11.2006 -2.92895,-2.30389 -5.99858,-2.10617 -12.04166,0.7756 -2.60454,1.24199 -3.52944,2.55773 -4.75056,6.75816 -0.83399,2.86874 -2.19962,5.47813 -3.03488,5.79863 -0.83527,0.32051 -1.95065,1.71927 -2.47868,3.10836 -0.67211,1.76738 -1.70783,2.52563 -3.44998,2.52563 -3.22135,0 -4.55625,2.60856 -3.88711,7.59675 0.63292,4.71909 -1.08466,6.71649 -5.3538,6.2255 -3.4237,-0.39377 -4.6444,-3.82225 -1.36096,-3.82225 2.50771,0 3.7195,-2.47866 2.14156,-4.38006 -0.84946,-1.02359 -0.75475,-1.66128 0.38818,-2.60971 2.0674,-1.71582 1.89768,-3.35145 -0.58036,-5.59406 -3.26225,-2.95226 -4.231,-5.32133 -2.85436,-6.9801 1.91781,-2.31064 4.8334,-1.73714 5.54302,1.0903 0.71491,2.84835 3.51693,4.75127 5.73986,3.89818 2.46194,-0.9447 4.05429,-6.071 3.01561,-9.70785 -0.89311,-3.1271 -1.09038,-3.22496 -7.08409,-3.5131 -7.46358,-0.35881 -14.94814,2.70063 -13.72173,5.60904 1.95743,4.64172 1.72499,6.39643 -1.15924,8.75507 -1.58748,1.2982 -4.124,2.37654 -5.63647,2.39632 -3.20609,0.0419 -6.74994,-3.08923 -6.74994,-5.96403 0,-2.74018 1.78475,-2.53554 2.18034,0.25 0.47421,3.33909 4.55583,3.64928 5.36927,0.40806 0.83506,-3.32671 -1.09801,-6.66589 -3.83477,-6.62484 -2.90754,0.0436 -10.10944,5.06146 -10.55038,7.35085 -0.1907,0.98689 0.6255,2.82788 1.81208,4.09108 3.20588,3.41243 2.52826,9.5375 -1.19124,10.76908 -3.55974,1.17872 -8.17193,-0.96709 -8.60482,-4.0036 -0.36699,-2.57318 1.00054,-2.9324 2.8194,-0.74063 3.12981,3.77116 7.29152,0.12009 4.58019,-4.01809 -1.83538,-2.80116 -5.92908,-3.89326 -8.85061,-2.36115 -1.80762,0.948 -9.72952,8.6251 -9.72952,9.42899 0,0.11933 0.78759,0.45651 1.74999,0.74926 0.96261,0.29275 4.22507,1.47624 7.25,2.62997 10.5561,4.02604 21.00012,3.637 21.00012,-0.78226 0,-1.04653 1.0124,-2.58968 2.24984,-3.42922 1.88687,-1.28 2.06252,-1.83965 1.08889,-3.46635 -1.0427,-1.74181 -0.90752,-1.89137 1.32431,-1.46471 1.4525,0.27764 2.87279,1.49268 3.4165,2.92272 0.80539,2.11874 1.36626,2.36206 4.17549,1.81127 3.18618,-0.62474 3.19952,-0.61212 0.74479,0.69668 -1.37495,0.73312 -2.64374,2.33493 -2.81961,3.55958 -0.28372,1.97541 -0.4884,2.05804 -1.81398,0.73239 -1.31266,-1.31261 -1.83581,-1.31768 -4.30326,-0.0417 -1.54488,0.79889 -3.05035,2.3763 -3.34573,3.50535 -0.5062,1.93586 -1.04037,2.01791 -9.37715,1.44018 -5.70512,-0.39538 -11.98403,-1.6571 -17.70524,-3.55778 -8.47917,-2.81699 -14.67587,-3.61251 -7.55703,-0.97016 6.19861,2.30075 12.17218,5.19838 11.6967,5.6738 -0.25702,0.257 -3.4718,-0.66359 -7.14384,-2.04575 -9.67697,-3.64238 -11.45938,-3.43686 -12.23448,1.41065 -0.39157,2.44782 -1.71248,4.96309 -3.51185,6.68709 -1.58641,1.51988 -2.88444,3.57924 -2.88444,4.57633 0,1.63689 1.03253,1.81291 10.63408,1.81291 5.84856,0 12.26117,0.44721 14.24996,0.99381 1.9888,0.54658 9.01589,2.30325 15.61602,3.9037 21.08784,5.11365 36.64347,10.18491 46.45266,15.14391 5.25104,2.65463 11.29984,5.14358 13.44183,5.531 5.24912,0.9494 4.02801,-0.8688 -2.15492,-3.20839 -2.60687,-0.98641 -7.21461,-3.16759 -10.23954,-4.84706 -7.42438,-4.12199 -11.65411,-5.82448 -23.95025,-9.64048 -5.74749,-1.7837 -9.96239,-3.40567 -9.36613,-3.60437 2.61556,-0.87184 29.97489,9.31602 42.5219,15.83394 4.85629,2.52269 7.37459,3.08457 16.91532,3.77402 12.85595,0.929 13.66961,1.44926 16.27457,10.40605 1.97566,6.79319 3.41566,8.6295 7.63119,9.73274 11.88211,3.10947 13.53844,3.74385 10.74871,4.11685 -2.6128,0.3493 -2.49711,0.52276 2.81283,4.21815 6.22954,4.33551 8.22596,4.14912 3.90172,-0.36429 -4.20833,-4.39261 -1.00329,-3.79151 5.38729,1.01043 2.92809,2.2 6.27213,4 7.43137,4 1.81716,0 1.52751,-0.59124 -2.10046,-4.28786 z M 276.99723,393.1999 c 0.33246,-0.33229 1.19485,-0.36782 1.91675,-0.079 0.79777,0.31923 0.56087,0.55618 -0.60409,0.60417 -1.05415,0.0434 -1.6449,-0.19293 -1.31266,-0.52522 z m -7.27076,-1.39583 c -1.97947,-0.63398 -2.08372,-0.80064 -0.50006,-0.80064 1.10013,0 3.12515,0.36028 4.5001,0.80064 1.97947,0.63397 2.08372,0.80064 0.50006,0.80064 -1.10013,0 -3.12515,-0.36029 -4.5001,-0.80064 z m -17.99998,-3.05105 c -2.47508,-0.44039 -7.31251,-0.83406 -10.74998,-0.87483 -3.45062,-0.0409 -6.2501,-0.52203 -6.2501,-1.07412 0,-1.7715 16.00674,-1.027 21.50018,1 5.40826,1.99563 3.56567,2.38416 -4.5001,0.94895 z m 70.72795,-22.72119 c 1.63769,-1.26981 2.06274,-2.35423 1.60379,-4.09125 -0.57104,-2.16127 -0.44073,-2.26521 1.522,-1.21482 4.0136,2.14803 2.04664,7.09836 -2.80372,7.05607 l -2.55008,-0.0223 2.22801,-1.72776 z m 77.48298,61.02224 c 1.219,-1.4736 5.4125,-1.66821 6.26387,-0.29068 0.32609,0.52763 0.0318,1.85716 -0.65305,2.95452 -1.64955,2.6412 -0.42356,3.68254 2.94781,2.50393 3.37475,-1.17985 4.24096,-5.64372 1.6504,-8.50621 -2.06147,-2.27788 -4.30686,-2.40347 -8.87159,-0.49622 -4.48993,1.87605 -5.91679,4.58487 -4.35559,8.26918 l 1.19315,2.81548 0.39538,-3 c 0.21761,-1.65 0.86091,-3.5625 1.42962,-4.25 z m -69.38733,2.88017 c 0.72805,-0.46155 1.76737,-2.81382 2.30959,-5.22726 0.88655,-3.9458 0.76725,-4.5652 -1.18446,-6.14549 -1.19357,-0.96658 -3.62839,-1.75742 -5.41038,-1.75742 -1.78198,0 -4.68147,-0.50255 -6.44354,-1.11678 -2.60645,-0.90862 -3.42646,-0.83778 -4.39925,0.38006 -0.65749,0.82326 -2.38332,1.77193 -3.83519,2.10814 -4.16616,0.96479 -4.49184,3.67508 -0.83463,6.94285 5.55361,4.96223 11.84714,2.55623 11.93889,-4.56427 0.0276,-2.07153 0.52888,-2.75 2.03541,-2.75 2.47889,0 2.73379,3.95036 0.47717,7.39427 -0.83738,1.27815 -1.23912,3.06232 -0.8929,3.96482 0.67,1.7462 4.04369,2.16313 6.23929,0.77108 z m 61.95638,-7.68861 c 1.91844,-1.34372 2.13415,-2.13593 1.56607,-5.75 -1.2368,-7.86845 -11.34603,-17.02323 -11.34603,-10.2749 0,1.32917 -0.56256,2.64364 -1.24993,2.92105 -0.68758,0.27742 0.18646,0.53992 1.94324,0.58334 3.35929,0.083 6.30666,3.0005 6.30666,6.24244 0,3.05407 -1.87246,2.98376 -3.48303,-0.13079 -1.10521,-2.13727 -2.29879,-3.0327 -4.04263,-3.0327 -3.57563,0 -3.33726,4.29098 0.44878,8.07693 3.25462,3.25458 6.51432,3.70587 9.85687,1.36464 z m 15.21999,-8.61282 c 0,-2.55293 0.6789,-4.93817 1.75,-6.14798 1.52242,-1.71969 1.20437,-1.66603 -2.44648,0.41273 -3.9905,2.27214 -5.25908,4.22834 -5.28981,8.15651 0,1.28081 0.79056,1.75 2.98637,1.75 2.85372,0 2.99992,-0.20319 2.99992,-4.17126 z m -33.99994,-3.11314 c 0,-2.58884 -0.63524,-3.65968 -2.99992,-5.05653 l -3.00014,-1.77215 0,4.00685 c 0,2.76108 0.54413,4.32375 1.74999,5.02613 3.11541,1.81447 4.25007,1.22594 4.25007,-2.2043 z m -10.0001,-3.58075 c 0,-1.02582 -0.8999,-3.0093 -2.00002,-4.40773 -3.2667,-4.15295 -2.27146,-6.0132 1.99536,-3.72969 1.7127,0.91659 1.78855,0.73425 0.93782,-2.25 -0.83485,-2.92873 -3.26924,-5.74744 -4.96351,-5.74744 -0.35661,0 -2.08138,1.57501 -3.83307,3.50001 -1.75169,1.925 -3.86062,3.5 -4.68635,3.5 -1.33257,0 -1.33384,0.32405 -0.0212,2.88088 3.29339,6.3683 12.56163,10.98272 12.56163,6.25397 z m 38.85686,-3.02517 c 1.46373,-0.92745 1.0605,-1.3644 -3.35675,-3.63894 -1.10013,-0.56639 -2.00002,-1.46036 -2.00002,-1.98658 0,-1.9978 3.35209,-1.47943 6.2609,0.96819 3.14338,2.64489 6.23908,3.36017 6.23908,1.44155 0,-2.1247 -6.18314,-8.8939 -8.12383,-8.8939 -2.57636,0 -9.49772,3.56341 -10.11453,5.2074 -1.73389,4.62186 6.55542,9.77874 11.09515,6.90228 z m -19.85677,-4.75084 c 1.33279,-1.32855 1.16539,-1.76586 -1.49996,-3.92209 l -3.00014,-2.42682 2.85712,-0.005 c 2.19326,-0.004 2.71599,-0.3724 2.25005,-1.58676 -0.33394,-0.86998 -0.60707,-1.76998 -0.60707,-2 0,-1.10214 -3.84557,-0.20007 -6.78363,1.59125 -4.11086,2.50644 -4.78085,4.21359 -3.17494,8.09065 1.1728,2.83141 1.54234,3.01442 4.86391,2.4091 1.97714,-0.36031 4.26957,-1.32797 5.09466,-2.15036 z m -38.37862,-8.35885 c 3.86443,-8.14531 3.81167,-7.86391 1.87373,-10.00539 -1.00796,-1.11366 -3.18194,-2.37453 -4.83149,-2.80195 -3.60911,-0.93525 -5.64854,-3.60782 -4.00598,-5.25023 0.81683,-0.81683 1.92734,-0.69122 4.17782,0.47248 3.79853,1.96431 8.53701,2.04617 10.09058,0.17431 0.64393,-0.77592 1.41563,-2.91965 1.71482,-4.76385 0.50366,-3.10377 0.23498,-3.52687 -3.61398,-5.69016 -4.71538,-2.65018 -4.59312,-3.51816 0.4687,-3.32786 3.25673,0.12244 3.50443,-0.0804 3.50443,-2.86919 0,-3.53458 2.06825,-4.68369 5.56379,-3.09106 3.67712,1.67546 3.17261,4.21872 -0.77509,3.9067 -4.20071,-0.33202 -4.84209,2.28373 -1.40292,5.72283 3.53431,3.5343 5.15039,3.17103 8.07213,-1.81449 3.17515,-5.41804 3.18448,-7.01167 0.0551,-9.47279 -2.1011,-1.65282 -4.19626,-1.97393 -13.52446,-2.07287 -11.01336,-0.1168 -11.04048,-0.11115 -12.02725,2.48388 -0.54392,1.43052 -1.95743,3.38533 -3.14147,4.34403 -2.046,1.65681 -2.07016,1.86086 -0.4865,4.12186 2.51555,3.59152 2.09368,5.09075 -2.56831,9.12399 -3.82184,3.30639 -4.13544,3.90308 -3.0156,5.73643 0.68758,1.1254 1.25014,2.72729 1.25014,3.55976 0,2.03736 -3.95914,1.95185 -5.47267,-0.1182 -1.1656,-1.59405 -9.79309,-5.36579 -12.27728,-5.36741 -0.68842,-4.5e-4 -1.25014,1.19967 -1.25014,2.67044 0,1.4692 -0.78357,3.53712 -1.74131,4.59539 -1.6646,1.83933 -1.63769,2.00806 0.61088,3.82874 3.31522,2.68462 4.76899,2.3805 6.03926,-1.26351 l 1.10437,-3.16812 2.53568,2.38222 c 2.12821,1.99917 2.84439,2.18961 4.4539,1.18434 3.46482,-2.1637 6.99722,0.88424 6.99722,6.03728 0,3.37862 0.81683,3.86462 5.93056,3.5285 3.67035,-0.24125 4.7245,-0.75917 5.69092,-2.7961 z m 9.29981,1.57181 c 1.1478,-1.03833 1.48428,-2.81268 1.23235,-6.5 -0.1907,-2.78949 -0.64076,-5.06829 -1.00012,-5.064 -1.28574,0.0153 -3.15333,5.45938 -3.15333,9.19156 0,4.13534 0.51234,4.55153 2.9211,2.37244 z m 39.83515,-0.63671 c 4.1132,-1.43388 5.93438,-5.72175 4.07633,-9.59816 -1.79259,-3.7402 -4.40348,-4.18293 -5.2307,-0.88696 -0.35216,1.40251 -1.33681,2.55003 -2.18839,2.55003 -1.09716,0 -1.36202,-0.58723 -0.90879,-2.01515 0.39962,-1.25886 -0.18858,-3.35382 -1.5648,-5.58205 -1.77182,-2.86677 -2.62022,-3.43218 -4.32233,-2.88058 -5.51992,1.78893 -8.42365,1.67183 -10.51966,-0.42426 -2.00405,-2.00398 -2.9514,-7.09796 -1.32028,-7.09796 0.4278,0 1.54849,0.9 2.49033,1.99999 0.94185,1.10001 2.35918,2.00001 3.14952,2.00001 1.45293,0 5.58243,-4.53823 5.58243,-6.13486 0,-2.00414 -4.19413,-4.86514 -7.13197,-4.86514 -3.58813,0 -9.8681,3.50657 -9.8681,5.51013 0,2.24625 -2.97556,4.48987 -5.95472,4.48987 -2.17568,0 -2.91602,0.54419 -3.27178,2.40466 -0.25279,1.32257 -0.036,3.16021 0.47993,4.08365 0.85327,1.52483 1.16157,1.47042 3.35759,-0.5926 2.00193,-1.88072 2.88869,-2.10674 5.15357,-1.31353 1.84259,0.64537 2.82575,1.76745 3.01243,3.43794 0.24007,2.14932 0.13349,2.24661 -0.79967,0.72988 -1.95871,-3.18367 -6.9773,-1.51843 -6.9773,2.31514 0,3.00375 3.93987,6.93486 6.95018,6.93486 3.1599,0 4.84823,-1.59971 5.9206,-5.60956 0.78102,-2.92036 3.55359,-5.29941 4.76454,-4.08841 0.40217,0.40222 0.19918,1.2638 -0.45196,1.91463 -0.65092,0.65084 -1.1834,1.53178 -1.1834,1.95766 0,1.45604 5.69007,3.7195 7.89859,3.14197 1.97036,-0.51528 2.13351,-0.2926 1.53471,2.09384 -0.47018,1.87333 -0.13984,3.25542 1.10331,4.63016 2.06295,2.27971 2.19326,2.29845 6.21979,0.8948 z"
       id="path5453"
       inkscape:connector-curvature="0" />
  </g>
</svg>
